<svg xmlns="http://www.w3.org/2000/svg" xmlns:xlink="http://www.w3.org/1999/xlink" width="1080" zoomAndPan="magnify" viewBox="0 0 810 809.999993" height="1080" preserveAspectRatio="xMidYMid meet" version="1.0"><rect x="-81" width="972" fill="#ffffff" y="-80.999999" height="971.999992" fill-opacity="1"/><rect x="-81" width="972" fill="#ffffff" y="-80.999999" height="971.999992" fill-opacity="1"/><path fill="#fcf9f7" d="M 389.171875 646.398438 C 288.5625 639.476562 200.222656 559.835938 175.292969 463.414062 C 152.289062 363.433594 197.972656 250.855469 287.105469 198.652344 C 344.441406 164.265625 416.382812 159.96875 479.839844 177.878906 C 558.214844 202.0625 617.875 272.09375 638.820312 350.222656 C 657.632812 422.222656 644.0625 503.980469 594.058594 560.714844 C 548.769531 617.359375 476.371094 649.996094 403.96875 647.078125 C 399.035156 646.976562 394.101562 646.746094 389.179688 646.386719 Z M 449.136719 635.066406 C 467.1875 633.484375 464.015625 627.925781 447.59375 626.515625 C 418.257812 620.84375 386.585938 620.699219 358.273438 630.640625 C 383.195312 642.707031 416.304688 639.597656 444.203125 636 Z M 360.253906 619.140625 C 373.136719 605.9375 359.695312 574.398438 348.4375 561.902344 C 323.273438 549.007812 303.757812 527.9375 280.742188 512.042969 C 263.40625 505.710938 246.5 517.753906 229.742188 521.832031 C 229.667969 538.457031 228.589844 557.230469 243.160156 568.789062 C 267.148438 592.566406 296.101562 613.40625 328.78125 622.875 C 339.277344 623.367188 350.296875 622.726562 360.253906 619.140625 Z M 498.207031 619.804688 C 539.960938 601.738281 579.125 572.707031 602.671875 533.195312 C 611.148438 521.824219 617.375 501.921875 595.230469 508.503906 C 567.417969 526.054688 542.296875 547.78125 513.804688 564.410156 C 496.527344 578.125 484.082031 597.003906 471.800781 615.054688 C 476.082031 625.054688 490 622.671875 498.207031 619.804688 Z M 526.511719 547.207031 C 547.5 529.929688 577.867188 518.796875 588.886719 492.582031 C 593.867188 471.96875 594.257812 450.636719 596.332031 429.609375 C 575.417969 410.984375 549.734375 398.351562 524.621094 386.417969 C 499.804688 388.414062 479.746094 410.523438 460.121094 424.855469 C 449.664062 430.648438 452.347656 443.667969 449.507812 453.652344 C 445.703125 476.988281 441.300781 500.257812 438.765625 523.78125 C 458.292969 538.277344 480.089844 551.585938 503.832031 557.179688 C 512.414062 557.285156 519.542969 551.453125 526.511719 547.207031 Z M 376.8125 550.847656 C 395.820312 543.570312 420.972656 538.074219 429.894531 517.871094 C 436.511719 489.558594 440.191406 460.585938 443.6875 431.746094 C 424.804688 413.730469 404.644531 394.734375 379.882812 385.335938 C 358.523438 384.992188 340.417969 400.148438 321.410156 408.425781 C 295.839844 415.386719 286.957031 438.722656 285.839844 462.820312 C 278.335938 486.660156 286.945312 511.152344 308.511719 524.289062 C 327.34375 538.21875 351.546875 560.425781 376.8125 550.847656 Z M 217.722656 517.433594 C 202.304688 488.832031 191.667969 457.511719 187.421875 425.285156 C 172.171875 428.363281 186.035156 465.902344 190.234375 481.21875 C 197.425781 501.910156 208.425781 520.925781 219.832031 539.523438 C 221.917969 531.871094 223.152344 524.273438 217.722656 517.433594 Z M 211.082031 390.109375 C 217.816406 380.464844 228.535156 372.851562 232.574219 361.832031 C 239.703125 328.476562 251.332031 296.269531 267.964844 266.449219 C 267.261719 247.179688 245.804688 235.472656 235.117188 256.703125 C 204.675781 296.007812 180.792969 343.90625 179.742188 394.457031 C 175.738281 411.792969 190.785156 424.40625 199.453125 403.875 C 203.335938 399.292969 207.210938 394.703125 211.085938 390.109375 Z M 603.121094 414.007812 C 616.027344 397.03125 633.859375 376.875 629.222656 353.875 C 621.148438 310.261719 598.8125 268.855469 564.503906 240.433594 C 554.320312 236.101562 535.703125 220.164062 528.597656 235.21875 C 518.097656 255.441406 491.976562 274.5625 501.386719 299.75 C 509.457031 324.613281 515.339844 350.601562 527.101562 374.015625 C 548.734375 390.945312 573.796875 404.101562 598.992188 415.207031 Z M 315.28125 402.703125 C 335.257812 392.589844 354.660156 381.410156 374.140625 370.382812 C 380.707031 347.375 388.953125 324.898438 396.632812 302.273438 C 397.707031 277.8125 375.941406 260.238281 361.378906 243.082031 C 347.078125 220.132812 322.878906 237.734375 305.226562 246.125 C 266.371094 266.929688 257.453125 312.71875 244.25 350.945312 C 246.082031 365.257812 259.15625 377.207031 268.699219 387.90625 C 281.886719 401.175781 296.714844 418.910156 315.28125 402.703125 Z M 458.5625 279.050781 C 468.898438 277.632812 480.441406 278.671875 490.035156 275.738281 C 504.386719 260.25 517.019531 242.105469 522.996094 221.746094 C 515.78125 201.226562 491.871094 191.871094 472.679688 184.886719 C 448.226562 177.59375 422.042969 174.019531 396.664062 176.902344 C 378.34375 186.28125 345.484375 213.496094 364.035156 234.589844 C 377.625 250.8125 392.089844 266.269531 406.820312 281.457031 C 424.101562 281.625 441.339844 280.273438 458.5625 279.054688 Z M 458.5625 279.050781 " fill-opacity="1" fill-rule="nonzero"/></svg>